<svg xmlns="http://www.w3.org/2000/svg" viewBox="0 0 477.69 119.83"><defs><style>.cls-1{fill:none;stroke:#fff;stroke-miterlimit:10;stroke-width:1.79px;}.cls-2{fill:#fff;}.cls-3{fill:#f29d20;}</style></defs><title>Asset 1</title><g id="Layer_2" data-name="Layer 2"><g id="Layer_1-2" data-name="Layer 1"><polyline class="cls-1" points="400.31 113.83 476.8 113.83 476.8 0.9 0.9 0.9 0.9 113.83 77.38 113.83"/><path class="cls-2" d="M94.72,110.82Q94.43,109,92.86,109q-1.95,0-1.95,2.36v4.07q0,2.36,1.8,2.36a1.75,1.75,0,0,0,1.95-1.91l2,.32a3.54,3.54,0,0,1-3.87,3.61q-4.09,0-4.09-4.38v-4.07q0-4.38,4.09-4.38,3.71,0,3.82,3.3Z"/><path class="cls-2" d="M104.1,117.65h4.43v2h-6.62v-12.5h2.2Z"/><path class="cls-2" d="M121.91,119.67h-2.27l-.66-2.55h-3.29l-.64,2.55h-1.89l3.41-12.5h1.91Zm-5.82-4h2.52l-1.25-4.95Z"/><path class="cls-2" d="M132.38,110.64a2.8,2.8,0,0,0-.22-.91,1.6,1.6,0,0,0-.42-.56,1.34,1.34,0,0,0-.58-.28,3.44,3.44,0,0,0-.72-.07,1.3,1.3,0,0,0-1.11.49,1.82,1.82,0,0,0-.37,1.12,1.14,1.14,0,0,0,.3.83,2.5,2.5,0,0,0,.78.53,9,9,0,0,0,1.05.39,8.94,8.94,0,0,1,1.15.45,5.33,5.33,0,0,1,.89.52,2.64,2.64,0,0,1,.66.7,3.19,3.19,0,0,1,.41,1,5.47,5.47,0,0,1,.14,1.33,3.8,3.8,0,0,1-.92,2.75,4,4,0,0,1-3,.95,4.27,4.27,0,0,1-3-.94,3.61,3.61,0,0,1-1.06-2.58l2.07-.18a1.93,1.93,0,0,0,.54,1.29,2,2,0,0,0,1.47.49,1.52,1.52,0,0,0,1.29-.51,2.07,2.07,0,0,0,.38-1.28,1.39,1.39,0,0,0-.37-1,3.18,3.18,0,0,0-.9-.63,8,8,0,0,0-1.15-.45,6.2,6.2,0,0,1-1.12-.46,3,3,0,0,1-1.32-1.3,4.07,4.07,0,0,1-.41-1.84,3.45,3.45,0,0,1,.89-2.5,3.68,3.68,0,0,1,2.77-.93,5.34,5.34,0,0,1,1.62.21,2.86,2.86,0,0,1,1.09.62,2.55,2.55,0,0,1,.64,1,4.84,4.84,0,0,1,.27,1.31Z"/><path class="cls-2" d="M145.28,110.64a2.79,2.79,0,0,0-.22-.91,1.59,1.59,0,0,0-.42-.56,1.35,1.35,0,0,0-.58-.28,3.42,3.42,0,0,0-.72-.07,1.3,1.3,0,0,0-1.12.49,1.82,1.82,0,0,0-.37,1.12,1.14,1.14,0,0,0,.3.83,2.54,2.54,0,0,0,.78.53,8.91,8.91,0,0,0,1.05.39,8.82,8.82,0,0,1,1.15.45,5.36,5.36,0,0,1,.89.52,2.6,2.6,0,0,1,.66.7,3.24,3.24,0,0,1,.41,1,5.47,5.47,0,0,1,.14,1.33,3.79,3.79,0,0,1-.92,2.75,4,4,0,0,1-3,.95,4.27,4.27,0,0,1-3-.94,3.61,3.61,0,0,1-1.06-2.58l2.07-.18a2,2,0,0,0,.54,1.29,2,2,0,0,0,1.47.49,1.52,1.52,0,0,0,1.29-.51,2.05,2.05,0,0,0,.38-1.28,1.4,1.4,0,0,0-.37-1,3.16,3.16,0,0,0-.9-.63,7.85,7.85,0,0,0-1.15-.45,6.17,6.17,0,0,1-1.11-.46,3,3,0,0,1-1.32-1.3,4,4,0,0,1-.41-1.84,3.45,3.45,0,0,1,.89-2.5,3.69,3.69,0,0,1,2.77-.93,5.33,5.33,0,0,1,1.62.21,2.86,2.86,0,0,1,1.09.62,2.5,2.5,0,0,1,.64,1,4.84,4.84,0,0,1,.27,1.31Z"/><path class="cls-2" d="M154.59,119.67h-2.2v-12.5h2.2Z"/><path class="cls-2" d="M165.87,110.82Q165.59,109,164,109q-1.95,0-1.95,2.36v4.07q0,2.36,1.8,2.36a1.75,1.75,0,0,0,1.95-1.91l2,.32a3.54,3.54,0,0,1-3.87,3.61q-4.09,0-4.09-4.38v-4.07q0-4.38,4.09-4.38,3.71,0,3.82,3.3Z"/><path class="cls-2" d="M186.32,110.82Q186,109,184.47,109q-1.95,0-1.95,2.36v4.07q0,2.36,1.8,2.36a1.76,1.76,0,0,0,1.95-1.91l2,.32a3.54,3.54,0,0,1-3.88,3.61q-4.09,0-4.09-4.38v-4.07q0-4.38,4.09-4.38,3.71,0,3.82,3.3Z"/><path class="cls-2" d="M197.85,107.17q3.45,0,3.45,3.29a3.54,3.54,0,0,1-2,3.57l2.29,5.64h-2.32l-2-5.45h-1.59v5.45h-2.2v-12.5Zm-2.14,2v3h2.14q1.25,0,1.25-1.76a1.11,1.11,0,0,0-1.25-1.26Z"/><path class="cls-2" d="M213.66,109.19h-4.75V112h4.66v2h-4.66v3.66h4.79v2h-7v-12.5h6.95Z"/><path class="cls-2" d="M227.31,119.67H225l-.66-2.55H221.1l-.64,2.55h-1.89l3.41-12.5h1.91Zm-5.82-4H224l-1.25-4.95Z"/><path class="cls-2" d="M238.87,109.19h-3v10.48h-2.2V109.19h-3v-2h8.14Z"/><path class="cls-2" d="M246.13,119.67h-2.2v-12.5h2.2Z"/><path class="cls-2" d="M256.48,119.67h-1.91l-3.43-12.5h2.34l2.21,8.3,2.21-8.3h2Z"/><path class="cls-2" d="M271.86,109.19h-4.75V112h4.66v2h-4.66v3.66h4.79v2h-7v-12.5h6.95Z"/><path class="cls-2" d="M286.84,119.67h-2.2v-12.5h2.2Z"/><path class="cls-2" d="M300.44,119.67h-2.07l-4-7.48v7.48h-2v-12.5h2.05l4,7.48v-7.48h2Z"/><path class="cls-2" d="M313.64,109.19h-3v10.48h-2.2V109.19h-3v-2h8.14Z"/><path class="cls-2" d="M325.65,109.19H320.9V112h4.66v2H320.9v3.66h4.79v2h-7v-12.5h6.95Z"/><path class="cls-2" d="M335.24,107.17q3.45,0,3.45,3.29a3.54,3.54,0,0,1-2,3.57l2.29,5.64h-2.32l-2-5.45H333.1v5.45h-2.2v-12.5Zm-2.14,2v3h2.14q1.25,0,1.25-1.76a1.11,1.11,0,0,0-1.25-1.26Z"/><path class="cls-2" d="M346.3,119.67h-2.2v-12.5h2.2Z"/><path class="cls-2" d="M359.64,115.46q0,4.38-4,4.38t-4.09-4.38v-4.07q0-4.38,4.09-4.38t4,4.38Zm-5.86,0q0,2.36,1.89,2.36t1.77-2.36v-4.07q0-2.36-1.77-2.36t-1.89,2.36Z"/><path class="cls-2" d="M369.25,107.17q3.45,0,3.45,3.29a3.54,3.54,0,0,1-2,3.57l2.29,5.64h-2.32l-2-5.45h-1.59v5.45h-2.2v-12.5Zm-2.14,2v3h2.14q1.25,0,1.25-1.76a1.11,1.11,0,0,0-1.25-1.26Z"/><path class="cls-2" d="M383.53,110.64a2.8,2.8,0,0,0-.22-.91,1.6,1.6,0,0,0-.42-.56,1.34,1.34,0,0,0-.58-.28,3.44,3.44,0,0,0-.72-.07,1.3,1.3,0,0,0-1.11.49,1.82,1.82,0,0,0-.37,1.12,1.14,1.14,0,0,0,.3.83,2.5,2.5,0,0,0,.78.53,9,9,0,0,0,1.05.39,8.94,8.94,0,0,1,1.15.45,5.33,5.33,0,0,1,.89.52,2.64,2.64,0,0,1,.66.7,3.19,3.19,0,0,1,.41,1,5.47,5.47,0,0,1,.14,1.33,3.8,3.8,0,0,1-.92,2.75,4,4,0,0,1-3,.95,4.27,4.27,0,0,1-3-.94,3.61,3.61,0,0,1-1.06-2.58l2.07-.18a1.93,1.93,0,0,0,.54,1.29,2,2,0,0,0,1.47.49,1.52,1.52,0,0,0,1.29-.51,2.07,2.07,0,0,0,.38-1.28,1.39,1.39,0,0,0-.37-1,3.18,3.18,0,0,0-.9-.63,8,8,0,0,0-1.15-.45,6.2,6.2,0,0,1-1.12-.46,3,3,0,0,1-1.32-1.3,4.07,4.07,0,0,1-.41-1.84,3.45,3.45,0,0,1,.89-2.5,3.68,3.68,0,0,1,2.77-.93,5.34,5.34,0,0,1,1.62.21,2.86,2.86,0,0,1,1.09.62,2.55,2.55,0,0,1,.64,1,4.84,4.84,0,0,1,.27,1.31Z"/><path class="cls-3" d="M55.37,44.09q-1.18-7.35-7.64-7.35-8,0-8,9.7V63.2q0,9.7,7.42,9.7,7.65,0,8-7.87l8.31,1.32Q62.13,81,47.5,81.21q-16.83,0-16.83-18V46.44q0-18,16.83-18,15.29,0,15.73,13.6Z"/><path class="cls-3" d="M92.66,44.09Q91.49,36.74,85,36.74q-8,0-8,9.7V63.2q0,9.7,7.42,9.7,7.64,0,8-7.87l8.3,1.32Q99.42,81,84.8,81.21,68,81.21,68,63.2V46.44q0-18,16.83-18,15.28,0,15.73,13.6Z"/><path class="cls-3" d="M114.89,80.55h-9V29.1h9Z"/><path class="cls-2" d="M166.49,80.55H163.7L150.91,31.67,138.34,80.55h-2.79L123.13,29.1h2.28L137,78,149.58,29.1h2.87L165.17,78,176.85,29.1H179Z"/><path class="cls-2" d="M212.85,60q0,21.32-15.51,21.31-16.1,0-16.1-21.31V49.68q0-21.32,16.1-21.31,15.51,0,15.51,21.31Zm-2.21-10.29q0-19.11-13.3-19.11-13.89,0-13.89,19.11V60q0,19.11,13.89,19.11,13.3,0,13.3-19.11Z"/><path class="cls-2" d="M248.9,60q0,21.32-15.51,21.31-16.1,0-16.1-21.31V49.68q0-21.32,16.1-21.31,15.51,0,15.51,21.31Zm-2.21-10.29q0-19.11-13.3-19.11-13.89,0-13.89,19.11V60q0,19.11,13.89,19.11,13.3,0,13.3-19.11Z"/><path class="cls-2" d="M284.43,63.5q0,17.05-17.05,17.05H254.3V29.1h13.08q17.05,0,17.05,17.12ZM256.5,31.3v47h10.88q14.85,0,14.85-14.85V46.22q0-14.92-14.85-14.92Z"/><path class="cls-2" d="M330.68,80.55h-2.79L315.09,31.67,302.53,80.55h-2.79L287.31,29.1h2.28L301.2,78,313.77,29.1h2.87L329.35,78,341,29.1h2.13Z"/><path class="cls-2" d="M377,60q0,21.32-15.51,21.31-16.1,0-16.1-21.31V49.68q0-21.32,16.1-21.31Q377,28.36,377,49.68Zm-2.2-10.29q0-19.11-13.3-19.11-13.89,0-13.89,19.11V60q0,19.11,13.89,19.11,13.3,0,13.3-19.11Z"/><path class="cls-2" d="M399.56,29.1q13.23,0,13.23,12.49,0,11.54-9.7,13.16L413,80.55h-2.35L401,55H384.64v25.5h-2.2V29.1ZM384.64,31.3V52.84h14.92q11,0,11-11.25,0-10.29-11-10.29Z"/><path class="cls-2" d="M429.38,46l19.18,34.54h-2.42l-18.3-32.93L420,55.7V80.55h-2.2V29.1H420V52.62L442.91,29.1h3Z"/></g></g></svg>